<svg xmlns="http://www.w3.org/2000/svg" width="1200" height="630" viewBox="0 0 1200 630" fill="none">
  <defs>
    <linearGradient id="bg" x1="120" y1="40" x2="1020" y2="590" gradientUnits="userSpaceOnUse">
      <stop stop-color="#0E1730" />
      <stop offset="1" stop-color="#05070D" />
    </linearGradient>
    <radialGradient id="glowA" cx="0" cy="0" r="1" gradientUnits="userSpaceOnUse" gradientTransform="translate(248 168) rotate(90) scale(220 320)">
      <stop stop-color="#7DD3FC" stop-opacity=".28" />
      <stop offset="1" stop-color="#7DD3FC" stop-opacity="0" />
    </radialGradient>
    <radialGradient id="glowB" cx="0" cy="0" r="1" gradientUnits="userSpaceOnUse" gradientTransform="translate(910 86) rotate(90) scale(240 360)">
      <stop stop-color="#A78BFA" stop-opacity=".24" />
      <stop offset="1" stop-color="#A78BFA" stop-opacity="0" />
    </radialGradient>
    <linearGradient id="accent" x1="320" y1="152" x2="760" y2="430" gradientUnits="userSpaceOnUse">
      <stop stop-color="#7DD3FC" />
      <stop offset="1" stop-color="#A78BFA" />
    </linearGradient>
  </defs>
  <rect width="1200" height="630" rx="32" fill="url(#bg)" />
  <rect width="1200" height="630" rx="32" fill="url(#glowA)" />
  <rect width="1200" height="630" rx="32" fill="url(#glowB)" />
  <rect x="80" y="80" width="1040" height="470" rx="28" fill="rgba(255,255,255,0.04)" stroke="rgba(255,255,255,0.12)" />
  <rect x="140" y="142" width="290" height="40" rx="20" fill="rgba(125,211,252,0.08)" stroke="rgba(125,211,252,0.22)" />
  <text x="168" y="167" fill="#7DD3FC" font-family="Segoe UI, Arial, sans-serif" font-size="18" letter-spacing="4">OPEN SOURCE EVENT GATEWAY</text>
  <text x="140" y="268" fill="#F7F8FB" font-family="Segoe UI, Arial, sans-serif" font-size="72" font-weight="700">EventsGateway</text>
  <text x="140" y="336" fill="#A7ADBD" font-family="Segoe UI, Arial, sans-serif" font-size="30">Tracking and event routing for Meta, GA4, Google Ads, and custom pipelines.</text>
  <rect x="140" y="390" width="326" height="72" rx="22" fill="url(#accent)" />
  <text x="188" y="435" fill="#02050A" font-family="Segoe UI, Arial, sans-serif" font-size="28" font-weight="700">Collect once. Route anywhere.</text>
  <rect x="690" y="148" width="320" height="324" rx="28" fill="rgba(7,11,20,0.84)" stroke="rgba(255,255,255,0.12)" />
  <rect x="720" y="188" width="260" height="36" rx="18" fill="rgba(255,255,255,0.05)" />
  <text x="748" y="211" fill="#A7ADBD" font-family="Consolas, monospace" font-size="16">$ collect PageView --site site_abc</text>
  <rect x="720" y="242" width="260" height="36" rx="18" fill="rgba(255,255,255,0.05)" />
  <text x="748" y="265" fill="#A7ADBD" font-family="Consolas, monospace" font-size="16">$ route Purchase --dest meta,ga4</text>
  <rect x="720" y="296" width="260" height="36" rx="18" fill="rgba(255,255,255,0.05)" />
  <text x="748" y="319" fill="#A7ADBD" font-family="Consolas, monospace" font-size="16">$ inspect deliveries --trace full</text>
  <rect x="720" y="368" width="124" height="34" rx="17" fill="rgba(125,211,252,0.08)" stroke="rgba(125,211,252,0.18)" />
  <text x="750" y="390" fill="#7DD3FC" font-family="Segoe UI, Arial, sans-serif" font-size="16">matched</text>
  <rect x="854" y="368" width="126" height="34" rx="17" fill="rgba(52,211,153,0.08)" stroke="rgba(52,211,153,0.18)" />
  <text x="888" y="390" fill="#34D399" font-family="Segoe UI, Arial, sans-serif" font-size="16">delivered</text>
</svg>
